# xmcd CD database file
#
# Track frame offsets:
#	182
#	13215
#	26887
#	41330
#	54352
#	65315
#	83107
#	93945
#	107045
#	120485
#	131870
#	145615
#
# Disc length: 2117 seconds
#
# Revision: 2
# Processed by: cddbd v1.5.2PL0 Copyright (c) Steve Scherf et al.
# Submitted via: CDex 1.51
#
DISCID=9a08430c
DTITLE=Snooks Eaglin - The legacy of blues vol.2
DYEAR=1971
DGENRE=Blues
TTITLE0=Boogie children
TTITLE1=Who's loving you tonight
TTITLE2=Lucille
TTITLE3=Drive it home
TTITLE4=Good news
TTITLE5=Funky malaguena
TTITLE6=Pine top's boogie woogie
TTITLE7=That some old train
TTITLE8=I get the blues when it rains
TTITLE9=Young boy blues
TTITLE10=Tomorrow night
TTITLE11=Little girl of mine
EXTD=YEAR: 1971
EXTT0=
EXTT1=
EXTT2=
EXTT3=
EXTT4=
EXTT5=
EXTT6=
EXTT7=
EXTT8=
EXTT9=
EXTT10=
EXTT11=
PLAYORDER=
